HIERARCHY
ROOT Hips
{
	OFFSET 0.00000 0.00000 0.00000
	CHANNELS 6 Xposition Yposition Zposition Zrotation Yrotation Xrotation 
	JOINT LHipJoint
	{
		OFFSET 0 0 0
		CHANNELS 3 Zrotation Yrotation Xrotation
		JOINT LeftUpLeg
		{
			OFFSET 1.56857 -1.73443 1.15205
			CHANNELS 3 Zrotation Yrotation Xrotation
			JOINT LeftLeg
			{
				OFFSET 2.39362 -6.57643 0.00000
				CHANNELS 3 Zrotation Yrotation Xrotation
				JOINT LeftFoot
				{
					OFFSET 2.50952 -6.89485 0.00000
					CHANNELS 3 Zrotation Yrotation Xrotation
					JOINT LeftToeBase
					{
						OFFSET 0.17171 -0.47178 1.88682
						CHANNELS 3 Zrotation Yrotation Xrotation
						End Site
						{
							OFFSET 0.00000 -0.00000 0.98146
						}
					}
				}
			}
		}
	}
	JOINT RHipJoint
	{
		OFFSET 0 0 0
		CHANNELS 3 Zrotation Yrotation Xrotation
		JOINT RightUpLeg
		{
			OFFSET -1.28153 -1.73443 1.15205
			CHANNELS 3 Zrotation Yrotation Xrotation
			JOINT RightLeg
			{
				OFFSET -2.26861 -6.23296 0.00000
				CHANNELS 3 Zrotation Yrotation Xrotation
				JOINT RightFoot
				{
					OFFSET -2.54143 -6.98254 0.00000
					CHANNELS 3 Zrotation Yrotation Xrotation
					JOINT RightToeBase
					{
						OFFSET -0.23309 -0.64041 1.93119
						CHANNELS 3 Zrotation Yrotation Xrotation
						End Site
						{
							OFFSET -0.00000 -0.00000 1.02013
						}
					}
				}
			}
		}
	}
	JOINT LowerBack
	{
		OFFSET 0 0 0
		CHANNELS 3 Zrotation Yrotation Xrotation
		JOINT Spine
		{
			OFFSET -0.07096 2.10460 -0.27878
			CHANNELS 3 Zrotation Yrotation Xrotation
			JOINT Spine1
			{
				OFFSET -0.00826 2.13662 -0.08279
				CHANNELS 3 Zrotation Yrotation Xrotation
				JOINT Neck
				{
					OFFSET 0 0 0
					CHANNELS 3 Zrotation Yrotation Xrotation
					JOINT Neck1
					{
						OFFSET 0.03239 1.77799 0.24435
						CHANNELS 3 Zrotation Yrotation Xrotation
						JOINT Head
						{
							OFFSET 0.01026 1.74194 -0.49664
							CHANNELS 3 Zrotation Yrotation Xrotation
							End Site
							{
								OFFSET 0.00170 1.83057 -0.19653
							}
						}
					}
				}
				JOINT LeftShoulder
				{
					OFFSET 0 0 0
					CHANNELS 3 Zrotation Yrotation Xrotation
					JOINT LeftArm
					{
						OFFSET 3.19178 1.35907 -0.31412
						CHANNELS 3 Zrotation Yrotation Xrotation
						JOINT LeftForeArm
						{
							OFFSET 4.85247 -0.00000 -0.00000
							CHANNELS 3 Zrotation Yrotation Xrotation
							JOINT LeftHand
							{
								OFFSET 3.55584 -0.00000 0.00000
								CHANNELS 3 Zrotation Yrotation Xrotation
								JOINT LeftFingerBase
								{
									OFFSET 0 0 0
									CHANNELS 3 Zrotation Yrotation Xrotation
									JOINT LeftHandIndex1
									{
										OFFSET 0.69320 -0.00000 0.00000
										CHANNELS 3 Zrotation Yrotation Xrotation
										End Site
										{
											OFFSET 0.55888 -0.00000 0.00000
										}
									}
								}
								JOINT LThumb
								{
									OFFSET 0 0 0
									CHANNELS 3 Zrotation Yrotation Xrotation
									End Site
									{
										OFFSET 0.56741 -0.00000 0.56741
									}
								}
							}
						}
					}
				}
				JOINT RightShoulder
				{
					OFFSET 0 0 0
					CHANNELS 3 Zrotation Yrotation Xrotation
					JOINT RightArm
					{
						OFFSET -3.28999 1.24191 -0.26899
						CHANNELS 3 Zrotation Yrotation Xrotation
						JOINT RightForeArm
						{
							OFFSET -4.64462 -0.00000 0.00000
							CHANNELS 3 Zrotation Yrotation Xrotation
							JOINT RightHand
							{
								OFFSET -3.40703 -0.00000 0.00000
								CHANNELS 3 Zrotation Yrotation Xrotation
								JOINT RightFingerBase
								{
									OFFSET 0 0 0
									CHANNELS 3 Zrotation Yrotation Xrotation
									JOINT RightHandIndex1
									{
										OFFSET -0.61958 -0.00000 0.00000
										CHANNELS 3 Zrotation Yrotation Xrotation
										End Site
										{
											OFFSET -0.49952 -0.00000 0.00000
										}
									}
								}
								JOINT RThumb
								{
									OFFSET 0 0 0
									CHANNELS 3 Zrotation Yrotation Xrotation
									End Site
									{
										OFFSET -0.50715 -0.00000 0.50715
									}
								}
							}
						}
					}
				}
			}
		}
	}
}
MOTION
Frames: 6
Frame Time: .0083333
39.1423 16.6707 -15.9714 13.4844 52.7286 10.8179 0.0000 0.0000 0.0000 -6.8340 -6.9062 -10.6327 2.2756 9.4180 27.1117 0.6815 8.8974 -21.2686 0.5227 -4.6333 -12.8655 0.0000 0.0000 0.0000 35.1912 9.6412 6.7975 -0.9325 -6.1513 17.2240 -0.7792 4.3757 -15.7763 -4.9556 -13.3336 40.6304 -2.0836 1.3845 9.6491 -0.0951 1.7477 4.6740 0.8969 0.8836 -0.6140 -3.7239 -8.5727 -20.6025 9.6829 -14.2241 30.2163 1.8984 -4.9913 15.0472 0.0000 -0.0000 0.0000 -75.9573 8.5789 50.4702 27.5816 -38.7282 -9.8608 -0.0000 0.0000 -13.4527 31.4383 -19.1354 -11.3315 -7.1250 0.0000 -0.0000 2.0382 7.8611 -1.7414 0.0000 -0.0000 0.0000 74.2487 -12.1464 47.5217 -35.1690 44.9324 -14.9326 0.0000 -0.0000 -17.1037 -25.0021 -26.4974 11.7536 7.1250 -0.0000 -0.0000 5.7090 -58.7028 -1.9165
39.3119 16.6574 -15.9243 13.4874 50.2054 11.2409 0.0000 0.0000 0.0000 -6.9381 -7.5901 -10.3023 1.7324 8.2850 23.5831 0.7516 9.1534 -22.1470 0.3570 -3.8385 -10.6228 0.0000 0.0000 0.0000 34.9481 10.3493 7.3302 -0.9518 -6.2129 17.4033 -0.7894 4.8319 -15.8549 -4.7203 -13.0617 39.6001 -2.4687 1.7686 9.4572 -0.4312 2.2154 4.5461 0.7218 1.1131 -0.6560 -3.5965 -8.3303 -20.3424 9.7254 -13.9093 30.0612 1.9658 -4.8616 14.8830 -0.0000 0.0000 0.0000 -76.4147 11.1630 48.7377 27.3376 -38.4992 -9.7086 -0.0000 0.0000 -14.2853 31.6315 -18.7356 -11.1913 -7.1250 0.0000 -0.0000 2.2178 8.2730 -1.8770 -0.0000 0.0000 0.0000 74.9178 -10.5881 47.9358 -37.6453 46.6113 -16.7074 0.0000 -0.0000 -17.0645 -24.6696 -26.1270 11.4344 7.1250 -0.0000 -0.0000 5.9170 -58.2396 -1.9208
39.4720 16.6402 -15.8806 13.3827 48.0268 11.5354 0.0000 0.0000 0.0000 -6.9047 -8.2953 -10.2795 1.3215 7.2806 20.5494 0.7840 9.0742 -22.3734 0.4082 -4.1017 -11.3628 0.0000 0.0000 0.0000 34.4860 10.4870 7.6709 -1.0188 -6.4214 18.0121 -0.8465 5.4314 -16.4079 -4.9363 -13.3117 40.5468 -2.9956 1.7964 9.5263 -0.7747 2.1917 4.3905 0.6596 1.0989 -0.8586 -2.4112 -7.8041 -20.7671 9.1097 -13.3940 30.3458 1.6156 -4.5686 14.8991 -0.0000 0.0000 0.0000 -76.7005 13.9797 46.8878 27.4998 -38.6517 -9.8097 -0.0000 0.0000 -15.8679 32.1084 -18.1634 -11.0679 -7.1250 0.0000 -0.0000 2.6038 8.8253 -2.1758 -0.0000 0.0000 0.0000 75.5484 -8.8572 49.3211 -40.4874 48.3560 -18.8026 0.0000 -0.0000 -16.9864 -23.7617 -26.4098 11.0795 7.1250 -0.0000 -0.0000 7.0446 -58.3260 -2.3037
39.6466 16.6065 -15.8271 12.7895 45.7712 11.4379 0.0000 0.0000 0.0000 -6.4636 -8.5468 -10.2766 1.0019 6.3695 17.8604 0.8478 7.9085 -21.9927 0.5576 -4.7830 -13.2907 0.0000 0.0000 0.0000 34.5174 10.8272 8.1707 -1.0977 -6.6576 18.7048 -0.9413 6.0430 -17.3069 -4.8676 -13.2331 40.2474 -2.9462 2.0073 9.2794 -1.0604 2.4760 4.3573 0.3161 1.2414 -0.7528 -1.9792 -7.4945 -20.7621 9.2407 -13.1244 30.1587 1.6490 -4.4013 14.7736 0.0000 -0.0000 0.0000 -76.9268 16.5143 45.7694 27.8006 -38.9320 -9.9981 -0.0000 0.0000 -17.6954 32.2732 -17.6362 -10.8317 -7.1250 0.0000 -0.0000 2.7836 9.3929 -2.2948 0.0000 -0.0000 0.0000 76.0421 -7.5242 50.6340 -44.0443 50.2916 -21.5009 0.0000 -0.0000 -17.3835 -23.3848 -26.7864 11.0275 7.1250 -0.0000 -0.0000 7.6364 -58.6285 -2.5541
39.7845 16.5506 -15.7732 13.1033 43.0810 11.8121 0.0000 0.0000 0.0000 -6.5353 -8.3166 -10.5338 0.7945 5.6896 15.8865 0.7924 6.2917 -20.2482 1.0536 -6.5267 -18.3205 0.0000 0.0000 0.0000 34.1700 12.1630 8.9846 -1.1867 -6.9131 19.4583 -1.0497 6.3263 -18.2871 -4.6602 -12.9906 39.3334 -3.9302 2.5248 9.4920 -1.4321 3.0600 4.3053 0.4108 1.5268 -0.9649 -1.9660 -7.4349 -20.7782 9.4404 -13.1192 30.1623 1.7281 -4.3713 14.7999 0.0000 -0.0000 0.0000 -77.1157 18.8324 45.1182 28.1761 -39.2778 -10.2350 -0.0000 0.0000 -19.4660 32.1516 -17.2983 -10.5864 -7.1250 0.0000 -0.0000 2.7516 9.8026 -2.2456 0.0000 -0.0000 0.0000 76.0995 -6.7810 52.0595 -48.6774 52.4479 -25.1217 0.0000 -0.0000 -18.4459 -24.3423 -26.9271 11.5783 7.1250 -0.0000 -0.0000 6.6404 -58.9959 -2.2775
39.9526 16.4990 -15.7278 12.7461 41.2165 11.6961 0.0000 0.0000 0.0000 -6.2538 -8.4357 -10.9618 0.6617 5.2025 14.4871 0.7668 3.8287 -18.3632 1.5978 -7.9726 -22.6310 0.0000 0.0000 0.0000 34.2140 12.8117 9.7021 -1.2658 -7.1314 20.1053 -1.1506 7.2340 -19.1601 -4.8337 -13.1940 40.0990 -3.8604 2.7383 9.5865 -1.6470 3.3388 4.3126 0.1162 1.6685 -1.0025 -1.8687 -7.3981 -20.5510 9.5852 -13.1142 29.8751 1.7728 -4.3666 14.6277 0.0000 -0.0000 0.0000 -77.2406 20.9286 44.7971 28.4636 -39.5395 -10.4175 -0.0000 0.0000 -20.8388 32.1180 -17.1250 -10.4724 -7.1250 0.0000 -0.0000 2.7533 10.0071 -2.2356 0.0000 -0.0000 0.0000 77.1567 -4.8440 52.6617 -51.1380 53.4443 -27.0856 0.0000 -0.0000 -17.4144 -23.3643 -26.7999 11.0219 7.1250 -0.0000 -0.0000 7.6656 -58.6377 -2.5657
